<?xml version="1.0" encoding="UTF-8" standalone="no"?>
<svg
   height="512"
   id="svg1"
   version="1.1"
   viewBox="0 0 512 512"
   width="512"
   xml:space="preserve"
   sodipodi:docname="foreground.svg"
   inkscape:export-filename="../../Calculator/graphics/foreground.svg"
   inkscape:export-xdpi="96"
   inkscape:export-ydpi="96"
   xmlns:inkscape="http://www.inkscape.org/namespaces/inkscape"
   xmlns:sodipodi="http://sodipodi.sourceforge.net/DTD/sodipodi-0.dtd"
   xmlns="http://www.w3.org/2000/svg"
   xmlns:svg="http://www.w3.org/2000/svg"><sodipodi:namedview
   id="namedview1"
   pagecolor="#ffffff"
   bordercolor="#000000"
   borderopacity="0.25"
   inkscape:showpageshadow="2"
   inkscape:pageopacity="0.0"
   inkscape:pagecheckerboard="0"
   inkscape:deskcolor="#d1d1d1" /><defs
   id="defs1" />
    <g
   style="fill:#5f6368"
   id="g2"
   transform="matrix(0.36415966,0,0,0.36415966,53.53628,454.01154)"><path
     d="m 364.47277,-359.47878 v 69.89184 c 0,8.55546 2.80896,15.64216 8.42685,21.26006 5.6179,5.61789 12.7046,8.42685 21.26007,8.42685 8.55547,0 15.64216,-2.80896 21.26006,-8.42685 5.6179,-5.6179 8.42685,-12.7046 8.42685,-21.26006 v -69.89184 h 69.89183 c 8.55547,0 15.64217,-2.80895 21.26006,-8.42685 5.6179,-5.61789 8.42685,-12.70459 8.42685,-21.26006 0,-8.55547 -2.80895,-15.64216 -8.42685,-21.26006 -5.61789,-5.6179 -12.70459,-8.42685 -21.26006,-8.42685 H 423.8466 v -69.89183 c 0,-8.55547 -2.80895,-15.64217 -8.42685,-21.26006 -5.6179,-5.6179 -12.70459,-8.42686 -21.26006,-8.42686 -8.55547,0 -15.64217,2.80896 -21.26007,8.42686 -5.61789,5.61789 -8.42685,12.70459 -8.42685,21.26006 v 69.89183 h -69.89183 c -8.55547,0 -15.64216,2.80895 -21.26006,8.42685 -5.6179,5.6179 -8.42685,12.70459 -8.42685,21.26006 0,8.55547 2.80895,15.64217 8.42685,21.26006 5.6179,5.6179 12.70459,8.42685 21.26006,8.42685 z m 278.63378,62.23672 h 174.2628 c 8.55547,0 15.64216,-2.80896 21.26006,-8.42685 5.6179,-5.6179 8.42685,-12.70459 8.42685,-21.26006 0,-8.55547 -2.80895,-15.64217 -8.42685,-21.26007 -5.6179,-5.61789 -12.70459,-8.42685 -21.26006,-8.42685 h -174.2628 c -8.55547,0 -15.64217,2.80896 -21.26007,8.42685 -5.61789,5.6179 -8.42685,12.7046 -8.42685,21.26007 0,8.55547 2.80896,15.64216 8.42685,21.26006 5.6179,5.61789 12.7046,8.42685 21.26007,8.42685 z m 0,-124.47343 h 174.2628 c 8.55547,0 15.64216,-2.80895 21.26006,-8.42685 5.6179,-5.6179 8.42685,-12.70459 8.42685,-21.26006 0,-8.55547 -2.80895,-15.64217 -8.42685,-21.26007 -5.6179,-5.61789 -12.70459,-8.42685 -21.26006,-8.42685 h -174.2628 c -8.55547,0 -15.64217,2.80896 -21.26007,8.42685 -5.61789,5.6179 -8.42685,12.7046 -8.42685,21.26007 0,8.55547 2.80896,15.64216 8.42685,21.26006 5.6179,5.6179 12.7046,8.42685 21.26007,8.42685 z m 87.1314,-262.73852 48.83092,48.83093 c 5.87515,5.87515 12.75438,8.89155 20.6377,9.04922 7.88331,0.15767 14.92022,-2.85874 21.11069,-9.04922 5.67599,-5.68429 8.6426,-12.51372 8.89985,-20.48833 0.25725,-7.98289 -2.45627,-15.06958 -8.14056,-21.26006 l -49.59021,-50.36195 48.83092,-48.83092 c 5.87515,-5.87515 8.89155,-12.75439 9.04922,-20.6377 0.15767,-7.88331 -2.85874,-14.92022 -9.04922,-21.11069 -6.19047,-6.19048 -13.14854,-9.28572 -20.87419,-9.28572 -7.72566,0 -14.68372,3.09524 -20.8742,9.28572 l -48.83092,48.83092 -48.83093,-48.83092 c -5.87515,-5.87515 -12.75438,-8.89155 -20.63769,-9.04922 -7.88332,-0.15767 -14.92022,2.85874 -21.1107,9.04922 -6.19047,6.19047 -9.28572,13.14854 -9.28572,20.87419 0,7.72566 3.09525,14.68372 9.28572,20.8742 l 48.83093,48.83092 -49.59022,50.36195 c -5.36895,5.87515 -8.13226,12.75438 -8.28993,20.6377 -0.15767,7.88331 2.85875,14.92022 9.04922,21.11069 6.19048,6.19048 13.14854,9.28572 20.8742,9.28572 7.72565,0 14.68372,-3.09524 20.87419,-9.28572 z M 307.02829,-698.0465 h 174.2628 c 8.55547,0 15.64216,-2.80896 21.26006,-8.42686 5.6179,-5.61789 8.42685,-12.70459 8.42685,-21.26006 0,-8.55547 -2.80895,-15.64216 -8.42685,-21.26006 -5.6179,-5.6179 -12.70459,-8.42685 -21.26006,-8.42685 h -174.2628 c -8.55547,0 -15.64217,2.80895 -21.26007,8.42685 -5.61789,5.6179 -8.42685,12.70459 -8.42685,21.26006 0,8.55547 2.80896,15.64217 8.42685,21.26006 5.6179,5.6179 12.7046,8.42686 21.26007,8.42686 z"
     id="path1-6"
     sodipodi:nodetypes="cssssscssssscssssscssssscsssssssssssssssssssssscsscsccssssscsssssccsssscsssssssssss"
     style="fill:#ffffff;stroke-width:1.24473" /></g></svg>
